<?xml version="1.0" encoding="UTF-8" standalone="no"?>
<!DOCTYPE svg PUBLIC "-//W3C//DTD SVG 1.1//EN" "http://www.w3.org/Graphics/SVG/1.1/DTD/svg11.dtd">
<svg width="100%" height="100%" viewBox="0 0 1200 1200" version="1.1" xmlns="http://www.w3.org/2000/svg" xmlns:xlink="http://www.w3.org/1999/xlink" xml:space="preserve" xmlns:serif="http://www.serif.com/" style="fill-rule:evenodd;clip-rule:evenodd;stroke-linejoin:round;stroke-miterlimit:2;">
    <g transform="matrix(1,0,0,1,-106.611,40.2805)">
        <g>
            <clipPath id="_clip1">
                <rect x="294.353" y="-40.28" width="855.156" height="1200"/>
            </clipPath>
            <g clip-path="url(#_clip1)">
                <g transform="matrix(1,0,0,1.50912,122.089,-331.196)">
                    <path d="M172.692,673.253L172.692,192.772L1016.96,192.772L1016.96,658.852C1018.31,670.268 1019.88,681.662 1021.57,693.042C1024.44,712.314 1026.52,731.661 1027.38,751.133C1027.54,754.812 1027.2,758.458 1026.76,762.1C1026.57,763.709 1026.15,765.076 1023.98,764.436C1022.97,764.136 1022.35,762.259 1021.1,763.353C1019.74,764.534 1017.88,765.992 1017.7,767.499C1017.41,770.025 1015.31,770.274 1014.3,770.188C1011.2,769.924 1010.41,772.031 1009.58,774.032C1008.95,775.576 1007.98,776.196 1006.52,776.871C1002.69,778.637 998.87,780.59 997.402,785.055C997.149,785.276 996.896,785.499 996.642,785.721C994.939,784.972 993.735,785.75 992.334,786.74C990.499,788.038 988.112,789.63 986.046,788.267C983.895,786.845 983.055,784.178 983.052,781.396C983.049,779.946 984.427,777.813 981.573,777.344C980.161,775.557 978.751,773.768 977.34,771.98C976.045,769.288 976.294,766.415 976.357,763.564C976.371,762.978 976.418,762.357 976.931,762.017C979.331,760.41 979.235,757.985 979.102,755.552C978.375,742.431 977.265,729.358 975.561,716.311C974.639,709.257 972.894,702.359 972.136,695.298C972.221,696.463 972.191,697.628 972.075,698.792C970.357,716.154 971.354,733.545 971.457,750.93C971.516,760.891 972.507,770.822 972.208,780.788C972.08,785.034 971.208,786.325 967.129,786.403C964.633,786.452 963.324,787.505 962.282,789.429C962.009,789.935 961.771,790.73 961.309,790.796C955.733,791.604 954.533,798.315 949.348,799.615C949.033,799.693 948.794,800.012 948.532,800.235C948.31,800.459 948.086,800.685 947.863,800.91C944.169,802.474 942.68,806.759 938.882,808.193C937.24,808.619 936.211,809.89 935.059,810.985C933.627,812.348 932.004,813.053 930.074,812.23C928.095,811.387 927.735,809.621 927.67,807.691C927.615,806.072 927.983,804.534 928.239,802.917C926.677,805.574 925.34,808.352 923.729,810.973C923.567,811.266 923.377,811.534 923.169,811.792C922.475,812.574 921.68,813.523 920.647,813.428C916.72,813.066 915.16,815.809 913.785,818.602C912.534,821.144 910.921,822.683 907.915,822.245C907.084,822.123 906.192,822.341 905.842,823.153C904.703,825.796 902.189,827.781 901.659,830.585C900.91,834.54 898.317,836.024 894.931,836.949C893.949,837.216 892.896,837.355 892.085,838.07C889.669,840.429 887.994,843.508 884.602,844.927C883.055,845.574 883.026,847.892 881.761,849.098C880.363,850.429 879.2,852.024 877.424,852.934C876.318,853.359 875.151,853.433 874.05,853.113C870.689,852.138 868.604,853.65 866.981,856.41C864.501,860.621 861.247,861.955 856.045,861.132C854.802,860.936 853.6,859.23 852.31,860.71C850.978,862.238 849.048,863.735 849.085,865.816C849.174,870.766 846.198,872.364 842.112,873.091C840.235,873.423 838.624,874.178 837.606,875.887C835.822,878.001 833.994,880.064 830.861,879.899C829.725,879.84 829.22,880.485 828.953,881.452C828.403,883.439 827.349,885.218 826.625,887.137C826.221,887.932 825.624,888.516 824.771,888.812C824.558,888.88 824.322,889.003 824.119,888.957C818.172,887.603 814.063,890.554 810.485,894.768C810.18,894.976 809.854,895.134 809.509,895.262C804.094,896.76 803.265,896.121 802.205,890.713C801.557,887.407 801.813,884.12 801.667,880.823C801.608,879.484 801.952,878.047 800.846,876.933C800.557,876.753 800.278,876.555 800,876.361C797.125,874.87 794.182,874.979 791.206,875.994C790.08,878.457 788.711,880.761 786.863,882.745C785.942,883.733 784.979,884.706 783.447,884.593C779.811,883.685 777.196,885.863 774.521,887.669C773.225,888.543 772.17,889.776 770.849,890.669C770.01,891.112 769.102,891.181 768.181,891.219C764.16,891.385 763.194,890.474 762.451,886.552C761.734,882.77 762.563,879.037 762.52,875.279C762.488,872.661 761.916,871.02 759.188,870.159C756.423,869.288 754.742,866.988 753.692,864.359C751.164,858.033 747.802,851.945 748.668,844.705C749.616,836.774 750.358,828.82 751.097,820.867C751.445,817.12 751.531,813.354 752.048,809.617C752.209,808.456 752.684,806.487 750.662,806.375C748.865,806.275 746.99,806.681 746.515,809.068C745.936,811.983 745.291,814.931 745.195,817.864C745.016,823.345 744.377,828.789 744.329,834.282C744.248,843.415 743.277,852.506 742.229,861.573C741.713,866.042 738.627,867.21 735.05,864.499C734.459,863.655 734.451,862.653 734.317,861.679C734.231,861.051 734.323,860.212 733.513,860.052C732.554,859.862 732.229,860.659 731.962,861.403C731.845,861.856 731.69,862.297 731.495,862.722C731.282,863.152 730.997,863.53 730.676,863.885C729.804,864.812 728.857,865.656 727.821,866.4C725.604,868.485 723.074,870.177 721.381,872.886C720.103,874.93 717.948,876.232 715.237,875.686C714.395,875.516 713.499,875.528 713.071,876.271C711.689,878.672 709.191,880.492 709.185,883.618C708.81,886.707 706.747,888.295 704.067,889.289C701.753,890.148 699.315,890.721 697.32,892.287C695.101,894.079 692.967,896.03 689.973,896.442C688.865,897.611 688.847,899.263 688.125,900.604C687.952,900.89 687.745,901.145 687.512,901.383C685.391,905.242 681.426,906.451 677.719,907.603C673.224,908.998 669.541,912.125 664.884,913.09C663.435,913.392 662.019,914.046 660.534,913.854C657.097,913.408 654.556,914.721 652.669,917.518C651.065,919.477 648.394,919.601 646.524,921.101C645.045,923.231 644.338,925.804 642.68,927.835C642.095,928.476 641.462,929.05 640.639,929.374C635.199,928.834 631.237,931.605 627.246,934.858C622.798,938.482 618.704,936.741 617.289,931.239C616.337,927.535 616.902,923.723 616.082,920.001C615.524,917.469 614.149,915.925 612.003,914.871C609.973,913.875 608.055,913.755 606.512,915.844C604.969,917.934 602.963,918.609 600.468,917.663C599.743,917.387 598.734,916.905 598.381,917.939C597.449,920.67 594.575,922.202 594.147,925.264C593.645,928.867 591.456,931.039 587.811,931.461C584.97,931.79 582.874,932.957 581.597,935.626C580.938,937.008 579.633,938.201 578.149,938.221C574.131,938.275 573.312,940.94 572.836,944.059C572.344,945.479 571.69,946.767 570.152,947.325C569.604,947.496 568.98,947.714 568.471,947.533C563.852,945.896 561.039,949.011 557.987,951.471C557.188,952.115 556.489,952.888 555.598,953.418C551.791,955.688 548.349,954.493 546.839,950.374C545.684,947.222 545.295,943.912 545.338,940.605C545.378,937.53 544.447,935.043 542.215,932.957C539.857,930.753 538.102,928.207 536.899,925.116C534.515,918.984 528.07,918.274 524.15,923.544C523.599,924.285 523.078,925.103 522.322,925.57C518.943,927.668 518.568,931.036 518.469,934.492C518.432,935.788 518.201,936.994 517.636,938.123C516.399,940.593 514.482,941.034 512.005,939.485C511.063,938.896 510.261,937.922 508.945,938.316C507.103,939.344 506.05,941.273 504.286,942.391C502.381,943.119 500.77,944.227 499.678,945.997C499.482,946.243 499.261,946.464 499.02,946.667C496.726,949.104 494.627,951.836 490.58,950.947C489.36,950.68 489.033,952.013 488.509,952.845C487.133,955.56 485.06,957.791 484.313,960.984C483.638,963.88 480.589,964.856 477.803,965.2C475.318,965.505 473.587,966.513 472.362,968.729C471.532,970.232 470.287,971.626 468.367,971.632C465.777,971.64 464.868,973.177 464.166,975.342C462.709,979.85 460.918,981.06 456.124,980.983C454.645,980.96 453.459,981.497 452.325,982.319C450.748,983.462 449.274,984.743 447.692,985.876C442.497,989.598 438.514,988.238 436.814,982.112C435.897,978.805 435.491,975.383 434.96,971.994C434.69,970.265 434.189,968.685 432.931,967.375C425.653,959.813 422.92,950.382 421.938,940.269C421.804,938.896 421.656,937.544 421.326,936.208C420.183,922.57 418.63,908.971 417.66,895.316C417.433,892.112 416.817,891.863 414.147,893.558C412.87,894.368 411.534,894.626 410.24,893.991C406.458,892.139 404.22,894.129 402.25,896.981C400.508,899.5 398.219,900.95 395.035,900.829C393.01,900.752 391.903,899.918 391.59,897.819C391.201,895.215 390.691,892.678 391.425,890.02C391.847,888.491 391.593,886.838 391.5,885.235C391.293,881.664 389.021,880.382 385.859,880.054C382.59,879.181 382.167,876.165 381.427,873.658C380.176,869.426 377.674,865.599 377.534,860.986C377.482,859.285 377.215,857.617 377.517,855.899C377.84,854.055 378.043,852.198 375.447,851.677C370.572,850.696 370.582,850.668 369.438,853.9C369.246,854.439 369.11,854.994 368.891,855.522C368.691,855.989 368.472,856.444 368.167,856.854C365.238,859.83 364.366,860.1 361.101,858.186C359.558,857.281 358.61,857.628 357.512,858.727C356.206,860.032 355.142,861.515 354.122,863.036C353.138,864.507 351.881,865.626 350.159,866.165C346.627,866.771 343.289,868.312 339.507,867.701C337.413,867.365 337.083,869.721 336.161,871.062C335.446,873.001 334.228,874.275 332.022,874.427C330.637,874.521 329.782,875.384 329.359,876.685C329.15,876.916 328.939,877.148 328.729,877.379C325.796,877.574 324.758,879.499 324.441,882.082C324.29,882.815 323.687,882.763 323.15,882.826C320.516,883.637 318.247,885.247 315.708,886.245C313.044,887.293 311.961,886.622 311.262,883.84C310.948,882.593 310.972,881.337 311.028,880.086C311.113,878.125 310.304,876.738 309.005,875.238C305.941,871.698 303.366,867.926 303.476,862.776C303.626,855.677 302.047,848.72 301.015,842.323C301.487,850.599 302.528,859.409 303.773,868.202C304.125,870.681 303.926,873.207 304.017,875.709C304.095,877.88 302.047,879.345 300.663,878.172C298.166,876.059 296.883,878.084 295.693,879.336C293.878,881.243 292.368,883.382 289.615,884.063C289.08,884.196 288.518,884.665 288.329,885.154C286.335,890.29 281.29,891.791 277.286,894.529C277.002,894.724 276.677,894.938 276.544,895.234C274.351,900.104 269.18,900.453 265.261,902.699C265.261,902.699 265.259,902.7 265.259,902.7C263.046,903.541 261.993,902.893 261.667,900.424C261.329,897.886 262.522,895.252 261.126,892.813C256.489,890.508 254.823,886.43 254.984,881.629C255.183,875.76 253.977,870.074 253.309,864.315C252.482,857.178 252.022,850.011 251.45,842.851C250.714,833.645 250.38,824.415 249.67,815.204C248.952,805.887 247.817,796.604 247.312,787.269C247.135,784.025 246.599,780.768 245.156,777.41C243.402,779.035 243.124,781.079 241.998,782.607C240.594,784.51 238.991,785.748 236.501,785.236C233.469,784.611 231.146,785.736 229.261,788.069C227.275,790.525 224.571,791.682 221.525,792.044C219.255,792.313 217.926,791.358 217.437,788.95C216.617,784.896 216.72,780.761 216.148,776.68C215.649,773.1 212.673,772.196 210.449,770.956C208.753,770.009 207.366,772.192 206.823,774.085C206.852,774.297 206.805,774.492 206.685,774.669C202.116,776.89 197.62,778.976 194.229,783.201C191.757,786.28 187.49,787.181 183.739,788.405C182.391,788.845 181.377,788.514 181.743,786.467C182.105,784.436 182.585,782.47 183.151,780.493C183.506,779.261 183.979,777.592 181.747,777.432C180.094,777.313 177.819,778.165 177.137,776.188C176.133,773.276 174.261,770.435 175.204,767.083C175.451,766.204 175.795,765.354 176.097,764.49C177.297,761.99 176.32,759.375 176.5,756.822C175.529,753.375 176.745,749.796 175.857,746.345C175.845,745.71 175.832,745.075 175.819,744.44C174.882,742.159 176.01,739.688 175.169,737.398C175.157,736.764 175.144,736.129 175.131,735.496C174.179,732.99 175.343,730.303 174.472,727.79C174.461,727.146 174.45,726.503 174.438,725.86C173.462,722.416 174.683,718.835 173.792,715.385C173.779,714.29 173.767,713.196 173.753,712.102C172.977,707.571 173.626,703.006 173.391,698.464C173.304,696.768 173.732,695.042 173.1,693.378C173.09,691.134 173.08,688.891 173.07,686.646C172.542,685.935 172.722,685.108 172.721,684.324C172.718,680.634 172.716,676.943 172.715,673.253L172.692,673.253Z"/>
                </g>
            </g>
        </g>
    </g>
</svg>
